<?xml version="1.0" encoding="UTF-8" standalone="no"?>
<svg
   xmlns:dc="http://purl.org/dc/elements/1.1/"
   xmlns:cc="http://creativecommons.org/ns#"
   xmlns:rdf="http://www.w3.org/1999/02/22-rdf-syntax-ns#"
   xmlns:svg="http://www.w3.org/2000/svg"
   xmlns="http://www.w3.org/2000/svg"
   xmlns:xlink="http://www.w3.org/1999/xlink"
   xmlns:sodipodi="http://sodipodi.sourceforge.net/DTD/sodipodi-0.dtd"
   xmlns:inkscape="http://www.inkscape.org/namespaces/inkscape"
   width="1240px"
   height="285px"
   viewBox="0 0 1240 285"
   version="1.1"
   id="SVGRoot"
   sodipodi:docname="noradlogo.svg"
   inkscape:version="1.0.2-2 (e86c870879, 2021-01-15)">
  <defs
     id="defs198">
    <linearGradient
       id="SVGID_21_"
       gradientTransform="matrix(0.55547916,0.00109019,-0.00111095,0.54509903,19.071114,3.5686716)"
       gradientUnits="userSpaceOnUse"
       x1="407.74799"
       x2="432.13"
       xlink:href="#lg1"
       y1="92.255997"
       y2="124.766" />
    <linearGradient
       id="lg1">
      <stop
         offset="0"
         stop-color="#ffe548"
         id="stop347" />
      <stop
         offset=".1758"
         stop-color="#ffde50"
         id="stop349" />
      <stop
         offset=".4446"
         stop-color="#ffca65"
         id="stop351" />
      <stop
         offset=".7709"
         stop-color="#ffaa87"
         id="stop353" />
      <stop
         offset="1"
         stop-color="#ff90a4"
         id="stop355" />
    </linearGradient>
    <linearGradient
       id="SVGID_20_"
       gradientTransform="matrix(0.55547916,0.00109019,-0.00111095,0.54509903,19.071114,3.5686716)"
       gradientUnits="userSpaceOnUse"
       x1="376.38"
       x2="400.76199"
       xlink:href="#lg7"
       y1="152.30299"
       y2="184.813" />
    <linearGradient
       id="lg7">
      <stop
         offset="0"
         stop-color="#c4f8b6"
         id="stop413" />
      <stop
         offset="1"
         stop-color="#3b8eac"
         id="stop415" />
    </linearGradient>
    <linearGradient
       id="SVGID_19_"
       gradientTransform="matrix(0.55547916,0.00109019,-0.00111095,0.54509903,19.071114,3.5686716)"
       gradientUnits="userSpaceOnUse"
       x1="375.14999"
       x2="408.59698"
       xlink:href="#lg4"
       y1="40.900002"
       y2="85.497002" />
    <linearGradient
       id="lg4">
      <stop
         offset="0"
         stop-color="#a34a9e"
         id="stop384" />
      <stop
         offset="1"
         stop-color="#343168"
         id="stop386" />
    </linearGradient>
    <linearGradient
       id="SVGID_18_"
       gradientTransform="matrix(0.55547916,0.00109019,-0.00111095,0.54509903,19.071114,3.5686716)"
       gradientUnits="userSpaceOnUse"
       x1="466.21701"
       x2="499.66501"
       xlink:href="#lg5"
       y1="195.56799"
       y2="240.16499" />
    <linearGradient
       id="lg5">
      <stop
         offset="0"
         stop-color="#3fa9f5"
         id="stop390" />
      <stop
         offset="1"
         stop-color="#666ad6"
         id="stop392" />
    </linearGradient>
    <linearGradient
       id="SVGID_17_"
       gradientTransform="matrix(0.55547916,0.00109019,-0.00111095,0.54509903,19.071114,3.5686716)"
       gradientUnits="userSpaceOnUse"
       x1="272.384"
       x2="305.832"
       xlink:href="#lg5"
       y1="209.862"
       y2="254.459" />
    <linearGradient
       id="SVGID_16_"
       gradientTransform="matrix(0.55547916,0.00109019,-0.00111095,0.54509903,19.071114,3.5686716)"
       gradientUnits="userSpaceOnUse"
       x1="206.325"
       x2="226.597"
       xlink:href="#lg8"
       y1="142.125"
       y2="160.87601" />
    <linearGradient
       id="lg8">
      <stop
         offset="0"
         stop-color="#e4003d"
         stop-opacity="0"
         id="stop420" />
      <stop
         offset=".3434"
         stop-color="#cd0e2d"
         stop-opacity=".343"
         id="stop422" />
      <stop
         offset="1"
         stop-color="#972e07"
         id="stop424" />
    </linearGradient>
    <linearGradient
       id="SVGID_15_"
       gradientTransform="matrix(0.55547916,0.00109019,-0.00111095,0.54509903,19.071114,3.5686716)"
       gradientUnits="userSpaceOnUse"
       x1="316.22601"
       x2="243.756"
       xlink:href="#lg8"
       y1="179.284"
       y2="127.085" />
    <radialGradient
       id="SVGID_14_"
       cx="172.96899"
       cy="36.437"
       gradientTransform="matrix(0.55547916,0.00109019,-0.00111095,0.54509903,19.071114,3.5686716)"
       gradientUnits="userSpaceOnUse"
       r="200.758"
       xlink:href="#lg6" />
    <linearGradient
       id="lg6">
      <stop
         offset="0"
         stop-color="#ff4974"
         id="stop397" />
      <stop
         offset=".4497"
         stop-color="#fe4773"
         id="stop399" />
      <stop
         offset=".6292"
         stop-color="#fc406d"
         id="stop401" />
      <stop
         offset=".7605"
         stop-color="#f73464"
         id="stop403" />
      <stop
         offset=".8683"
         stop-color="#f12257"
         id="stop405" />
      <stop
         offset=".9606"
         stop-color="#e80c46"
         id="stop407" />
      <stop
         offset="1"
         stop-color="#e4003d"
         id="stop409" />
    </linearGradient>
    <linearGradient
       id="SVGID_13_"
       gradientTransform="matrix(0.55547916,0.00109019,-0.00111095,0.54509903,19.071114,3.5686716)"
       gradientUnits="userSpaceOnUse"
       x1="440.233"
       x2="417.935"
       xlink:href="#lg7"
       y1="332.54501"
       y2="396.73801" />
    <linearGradient
       id="SVGID_12_"
       gradientTransform="matrix(0.55547916,0.00109019,-0.00111095,0.54509903,19.071114,3.5686716)"
       gradientUnits="userSpaceOnUse"
       x1="431.698"
       x2="383.72299"
       xlink:href="#lg6"
       y1="392.07999"
       y2="421.13501" />
    <linearGradient
       id="SVGID_11_"
       gradientTransform="matrix(0.33939777,-0.43117334,0.43938402,0.33305551,593.04439,-247.06187)"
       gradientUnits="userSpaceOnUse"
       x1="-1026.41"
       x2="-1010.69"
       xlink:href="#lg4"
       y1="-413.642"
       y2="-401.23199" />
    <linearGradient
       id="SVGID_10_"
       gradientTransform="matrix(0.53714835,-0.13900025,0.14164719,0.52711077,238.67256,-165.87536)"
       gradientUnits="userSpaceOnUse"
       x1="-360.31601"
       x2="-344.59601"
       xlink:href="#lg5"
       y1="299.54001"
       y2="311.95001" />
    <linearGradient
       id="SVGID_9_"
       gradientTransform="matrix(0.53381547,0.15044733,-0.15331225,0.52384018,-187.4816,1.4558682)"
       gradientUnits="userSpaceOnUse"
       x1="816.74103"
       x2="795.13599"
       xlink:href="#lg4"
       y1="104.448"
       y2="23.715" />
    <linearGradient
       id="SVGID_8_"
       gradientTransform="matrix(0.55547916,0.00109019,-0.00111095,0.54509903,19.071114,3.5686716)"
       gradientUnits="userSpaceOnUse"
       x1="332.40601"
       x2="298.95801"
       y1="338.38699"
       y2="283.65399">
      <stop
         offset="0"
         stop-color="#a34a9e"
         stop-opacity="0"
         id="stop379" />
      <stop
         offset="1"
         stop-color="#343168"
         id="stop381" />
    </linearGradient>
    <linearGradient
       id="SVGID_7_"
       gradientTransform="matrix(0.55547916,0.00109019,-0.00111095,0.54509903,19.071114,3.5686716)"
       gradientUnits="userSpaceOnUse"
       x1="283.177"
       x2="241.621"
       xlink:href="#lg3"
       y1="268.552"
       y2="141.856" />
    <linearGradient
       id="lg3">
      <stop
         offset="0"
         stop-color="#ffd00d"
         stop-opacity="0"
         id="stop372" />
      <stop
         offset="1"
         stop-color="#db722b"
         id="stop374" />
    </linearGradient>
    <linearGradient
       id="SVGID_6_"
       gradientTransform="matrix(0.55547916,0.00109019,-0.00111095,0.54509903,19.071114,3.5686716)"
       gradientUnits="userSpaceOnUse"
       x1="222.045"
       x2="287.927"
       xlink:href="#lg3"
       y1="313.06299"
       y2="211.707" />
    <linearGradient
       id="SVGID_5_"
       gradientTransform="matrix(0.55547916,0.00109019,-0.00111095,0.54509903,19.071114,3.5686716)"
       gradientUnits="userSpaceOnUse"
       x1="266.05801"
       x2="219.43401"
       xlink:href="#lg1"
       y1="233.38901"
       y2="338.80099" />
    <linearGradient
       id="SVGID_4_"
       gradientTransform="matrix(0.55547916,0.00109019,-0.00111095,0.54509903,19.071114,3.5686716)"
       gradientUnits="userSpaceOnUse"
       x1="241.013"
       x2="197.092"
       xlink:href="#lg2"
       y1="286.51001"
       y2="431.112" />
    <linearGradient
       id="lg2">
      <stop
         offset="0"
         stop-color="#fba5c2"
         stop-opacity="0"
         id="stop359" />
      <stop
         offset=".3857"
         stop-color="#fca0ba"
         stop-opacity=".386"
         id="stop361" />
      <stop
         offset=".9737"
         stop-color="#ff91a5"
         stop-opacity=".974"
         id="stop363" />
      <stop
         offset="1"
         stop-color="#ff90a4"
         id="stop365" />
    </linearGradient>
    <linearGradient
       id="SVGID_3_"
       gradientTransform="matrix(0.55547916,0.00109019,-0.00111095,0.54509903,19.071114,3.5686716)"
       gradientUnits="userSpaceOnUse"
       x1="217.64999"
       x2="182.513"
       xlink:href="#lg2"
       y1="355.51199"
       y2="482.54599" />
    <linearGradient
       id="SVGID_2_"
       gradientTransform="matrix(0.55547916,0.00109019,-0.00111095,0.54509903,19.071114,3.5686716)"
       gradientUnits="userSpaceOnUse"
       x1="189.058"
       x2="160.679"
       xlink:href="#lg2"
       y1="415.58499"
       y2="516.26599" />
    <linearGradient
       id="SVGID_1_"
       gradientTransform="matrix(0.3921683,0.38593011,-0.39327925,0.38483991,-529.31127,-95.301391)"
       gradientUnits="userSpaceOnUse"
       x1="1053.46"
       x2="1308.866"
       xlink:href="#lg1"
       y1="-446.89499"
       y2="-401.28699" />
  </defs>
  <sodipodi:namedview
     id="base"
     pagecolor="#ffffff"
     bordercolor="#666666"
     borderopacity="1.0"
     inkscape:pageopacity="0.0"
     inkscape:pageshadow="2"
     inkscape:zoom="0.24748737"
     inkscape:cx="994.71584"
     inkscape:cy="487.4923"
     inkscape:document-units="px"
     inkscape:current-layer="layer1"
     inkscape:document-rotation="0"
     showgrid="false"
     inkscape:window-width="1366"
     inkscape:window-height="705"
     inkscape:window-x="-8"
     inkscape:window-y="-8"
     inkscape:window-maximized="1" />
  <metadata
     id="metadata201">
    <rdf:RDF>
      <cc:Work
         rdf:about="">
        <dc:format>image/svg+xml</dc:format>
        <dc:type
           rdf:resource="http://purl.org/dc/dcmitype/StillImage" />
        <dc:title></dc:title>
      </cc:Work>
    </rdf:RDF>
  </metadata>
  <g
     inkscape:label="Calque 1"
     inkscape:groupmode="layer"
     id="layer1">
    <path
       d="m 228.8978,217.91959 c -0.96098,0.93974 -2.12526,1.64892 -3.48341,2.13461 l -1.37037,0.40391 c 0,0 -184.782361,73.16211 -199.150382,59.01133 C 10.525617,265.31813 85.753047,84.25641 85.753047,84.25641 l 0.416601,-1.343123 c 0.499935,-1.331133 1.227067,-2.470936 2.188038,-3.410686 11.494533,-11.238854 52.276704,10.63379 91.085244,48.856129 38.80856,38.22235 60.94939,78.32255 49.45487,89.56086 z"
       fill="url(#SVGID_1_)"
       id="path434"
       style="fill:url(#SVGID_1_);stroke-width:0.550264" />
    <path
       d="m 217.4016,223.05769 c -9.72476,3.78408 -29.19654,11.27429 -52.18893,19.65845 -14.06252,5.12993 -29.44318,10.594 -44.71607,15.74355 -13.34649,4.50089 -26.613008,8.7701 -38.837437,12.36722 -8.398837,-6.92659 -16.745473,-14.43914 -24.922681,-22.49243 -8.177207,-8.05329 -15.801724,-16.27175 -22.829639,-24.53872 3.710044,-11.98238 8.10888,-24.98625 12.744359,-38.06645 5.303162,-14.96896 10.927383,-30.04203 16.206105,-43.82269 8.627695,-22.53221 16.331645,-41.61231 20.222772,-51.14173 24.793261,13.19358 51.286831,32.70539 76.233401,57.27519 24.94712,24.57034 44.73385,50.6397 58.08812,75.01761 z"
       fill="url(#SVGID_2_)"
       id="path436"
       style="fill:url(#SVGID_2_);stroke-width:0.550264" />
    <path
       d="m 228.89668,217.91796 c -0.95874,0.94301 -2.1258,1.64838 -3.4834,2.13733 l -1.36869,0.40065 c 0,0 -2.38913,0.94574 -6.64299,2.60122 -9.72476,3.78407 -29.19654,11.27427 -52.18893,19.65844 -14.06252,5.12992 -29.44318,10.59401 -44.71607,15.74355 C 107.22177,248.63429 93.916374,237.28424 81.024252,224.5867 68.132131,211.88917 56.614829,198.79098 46.650645,185.72877 51.953807,170.7598 57.578028,155.68673 62.85675,141.90609 c 8.627705,-22.53222 16.331646,-41.61233 20.222772,-51.141744 1.702551,-4.168372 2.675196,-6.509027 2.675196,-6.509027 l 0.41327,-1.342032 c 0.503823,-1.330591 1.2265,-2.473118 2.190812,-3.410686 11.495079,-11.239397 52.27336,10.634881 91.08469,48.853949 38.80633,38.22616 60.94829,78.32201 49.45319,89.56141 z"
       fill="url(#SVGID_3_)"
       id="path438"
       style="fill:url(#SVGID_3_);stroke-width:0.550264" />
    <path
       d="m 228.89668,217.91796 c -0.95874,0.94301 -2.1258,1.64838 -3.4834,2.13733 l -1.36869,0.40065 c 0,0 -2.38913,0.94574 -6.64299,2.60122 -9.72476,3.78407 -29.19654,11.27427 -52.18893,19.65844 -18.71466,-12.09466 -37.88535,-27.42175 -56.21726,-45.47708 -18.331931,-18.05531 -33.88146,-36.92336 -46.138103,-55.3319 8.627695,-22.53221 16.331645,-41.61231 20.222772,-51.14173 1.70254,-4.168374 2.675185,-6.509029 2.675185,-6.509029 l 0.413281,-1.342031 c 0.503823,-1.330585 1.2265,-2.473113 2.190812,-3.410686 11.495089,-11.239397 52.273363,10.634882 91.084683,48.853946 38.80578,38.22562 60.94774,78.32147 49.45264,89.56087 z"
       fill="url(#SVGID_4_)"
       id="path440"
       style="fill:url(#SVGID_4_);stroke-width:0.550264" />
    <path
       d="M 228.89613,217.92123 C 217.39938,229.16226 176.61776,207.28962 137.80921,169.06672 99.00067,130.84384 76.859266,90.745815 88.356026,79.504235 c 11.49675,-11.241573 52.278364,10.631614 91.086904,48.854495 38.80856,38.22289 60.94996,78.32146 49.4532,89.5625 z"
       fill="url(#SVGID_5_)"
       id="path442"
       style="fill:url(#SVGID_5_);stroke-width:0.550264" />
    <path
       d="m 221.73101,207.61777 c -8.49327,8.30458 -42.89133,-12.06032 -76.82943,-45.4858 -33.93812,-33.42546 -54.565275,-67.254307 -46.072,-75.558888 8.49328,-8.304585 42.89132,12.060312 76.82944,45.485778 33.9381,33.42548 54.56581,67.25432 46.07199,75.55891 z"
       fill="url(#SVGID_6_)"
       id="path444"
       style="fill:url(#SVGID_6_);stroke-width:0.550264" />
    <path
       d="m 228.8978,217.91959 c 11.49452,-11.23885 -10.64576,-51.33797 -49.45487,-89.56031 -22.75632,-22.41229 -46.18808,-39.198616 -63.99897,-46.988625 0.69547,1.255906 1.47147,2.500914 2.33857,3.728476 1.40925,1.99506 3.05902,3.813515 4.91655,5.453169 l 9.85474,9.73765 c -1.13595,0.50585 -2.17969,0.90596 -3.05735,1.20957 -1.57146,0.54346 -2.49132,2.13843 -2.16249,3.74101 l 3.48731,16.99837 c 0.30829,1.50285 1.38258,2.64429 2.72517,3.14305 l 94.61144,93.18195 c 0.25829,-0.2006 0.50549,-0.41482 0.7399,-0.64431 z"
       fill="url(#SVGID_7_)"
       id="path446"
       style="fill:url(#SVGID_7_);stroke-width:0.550264" />
    <path
       d="m 165.98867,165.10713 9.67756,11.35277 45.08102,44.39995 c 3.44564,-0.0954 6.21415,-1.0455 8.14943,-2.93807 10.0464,-9.82324 -5.59422,-41.6821 -35.59676,-75.06941 -9.34928,3.8315 -18.26194,8.84695 -26.49247,15.01366 -2.32523,1.74105 -2.69574,5.03943 -0.81878,7.2411 z"
       fill="url(#SVGID_8_)"
       id="path448"
       style="fill:url(#SVGID_8_);stroke-width:0.550264" />
    <path
       d="m 175.66623,176.4599 -9.67756,-11.35277 c -1.87696,-2.20167 -1.50645,-5.4995 0.81823,-7.24164 29.99198,-22.47008 69.00383,-29.76841 105.43827,-19.48511 9.16985,2.58758 17.95031,6.2163 26.16917,10.80985 2.54244,1.42108 3.35733,4.64316 1.79533,7.07103 l -8.05113,12.51602 c -1.45979,2.26925 -4.47104,3.01059 -6.85627,1.69908 -6.30858,-3.46792 -13.03599,-6.22014 -20.05947,-8.20212 -28.4933,-8.04183 -58.98911,-2.43059 -82.55198,14.97443 -2.18415,1.61294 -5.27095,1.26845 -7.02459,-0.78877 z"
       fill="url(#SVGID_9_)"
       id="path450"
       style="fill:url(#SVGID_9_);stroke-width:0.550264" />
    <path
       d="m 92.039402,58.598056 -8.787121,-8.87258 c -3.98279,-4.021741 -5.182066,-10.495336 -2.856277,-15.41758 2.700192,-5.715363 9.180407,-7.390452 14.39969,-3.722481 4.495491,3.159394 6.701856,9.372432 5.254826,14.797803 L 96.858737,57.3525 c -0.563807,2.114986 -3.266217,2.813805 -4.819335,1.245556 z"
       fill="url(#SVGID_10_)"
       id="path452"
       style="fill:url(#SVGID_10_);stroke-width:0.550264" />
    <path
       d="M 76.496536,68.233222 64.019366,66.454018 C 58.364032,65.647817 53.3925,61.232518 52.179334,55.939063 c -1.408706,-6.14654 2.68852,-11.350055 9.104293,-11.563188 5.525916,-0.183699 11.134029,3.422131 13.356499,8.589124 l 4.903215,11.398564 c 0.867111,2.014141 -0.842103,4.184184 -3.046805,3.869659 z"
       fill="url(#SVGID_11_)"
       id="path454"
       style="fill:url(#SVGID_11_);stroke-width:0.550264" />
    <path
       d="m 243.55245,210.55911 12.5566,-1.11527 c 5.69145,-0.5053 11.5723,2.65463 14.00587,7.52673 2.82571,5.6565 0.0733,11.65203 -6.11639,13.32331 -5.33149,1.43907 -11.63951,-0.7893 -15.02517,-5.30762 l -7.4684,-9.96823 c -1.31927,-1.76177 -0.17165,-4.26213 2.04749,-4.45892 z"
       fill="url(#SVGID_12_)"
       id="path456"
       style="fill:url(#SVGID_12_);stroke-width:0.550264" />
    <path
       d="m 245.7066,192.64227 9.26261,-8.39399 c 4.19831,-3.8048 10.82351,-4.81595 15.77894,-2.40933 5.75366,2.79472 7.29512,9.19418 3.42508,14.22109 -3.33286,4.32972 -9.71866,6.33568 -15.20846,4.77833 l -12.11222,-3.43632 c -2.1397,-0.60723 -2.78238,-3.27658 -1.14595,-4.75978 z"
       fill="url(#SVGID_13_)"
       id="path458"
       style="fill:url(#SVGID_13_);stroke-width:0.550264" />
    <path
       d="m 136.38386,125.45554 c -2.45689,0.7773 -5.0532,-0.73262 -5.56257,-3.21609 l -3.48731,-16.99837 c -0.32883,-1.60313 0.59103,-3.19755 2.16249,-3.74101 1.83641,-0.63503 4.38828,-1.679992 7.02626,-3.27169 -7.96725,-2.581037 -14.45024,-7.056301 -18.73965,-13.1287 -8.08666,-11.448718 -8.72046,-24.353391 -1.69643,-34.520034 6.95072,-10.060347 19.79394,-14.968419 31.96171,-12.211852 13.30206,3.013306 22.64577,14.434766 24.99434,30.553343 0.0978,0.671018 0.18442,1.338762 0.25941,2.003786 3.26345,-1.876232 5.90029,-4.190721 7.55175,-6.781577 4.18052,-6.556995 4.57714,-16.342615 1.01208,-24.92956 -2.26303,-5.4499 -5.75643,-9.617726 -9.69645,-11.714178 -1.75754,-0.934844 -2.69408,-2.874851 -2.22302,-4.781062 l 3.995,-16.1660017 c 0.61214,-2.4758402 3.29954,-3.9007288 5.7242,-2.9893238 11.18125,4.2021687 20.3811,13.5478915 25.66315,26.2683215 6.63797,15.986665 5.49035,34.186433 -2.99569,47.497747 -6.7141,10.531315 -19.09683,18.386739 -33.41486,21.707475 -3.21623,6.598976 -8.02946,12.396096 -14.34248,17.145536 -6.74129,5.07052 -13.72533,7.86034 -18.19193,9.27324 z m 4.96599,-62.971477 c -1.65701,-0.0027 -3.43621,0.806749 -4.29276,2.047392 -1.27982,1.852249 0.42106,4.808317 1.54869,6.404914 1.54643,2.189662 5.14706,3.823327 9.68255,4.554848 -0.0656,-0.99099 -0.17442,-2.007598 -0.32663,-3.050919 -0.80933,-5.553468 -2.90737,-9.234526 -5.61256,-9.847212 -0.32162,-0.07304 -0.65768,-0.108475 -0.99929,-0.109023 z"
       fill="url(#SVGID_14_)"
       id="path460"
       style="fill:url(#SVGID_14_);stroke-width:0.550264" />
    <path
       d="M 191.46295,88.810166 173.30211,70.923833 c 0,0 1.15984,17.270915 -4.38439,28.112387 8.44383,-1.957997 16.21333,-5.494593 22.54523,-10.226054 z"
       fill="url(#SVGID_15_)"
       id="path462"
       style="fill:url(#SVGID_15_);stroke-width:0.550264" />
    <path
       d="m 138.60578,70.936369 c -0.82602,-1.169785 -1.95474,-3.067274 -1.99918,-4.727643 l -25.36984,-0.04523 c 0.0394,6.301891 2.2308,12.826183 6.54632,18.9362 4.28941,6.072947 10.77186,10.54821 18.73965,13.128703 0,0 13.00266,-3.870745 11.76615,-22.737166 -4.53604,-0.731521 -8.13667,-2.365187 -9.6831,-4.55485 z"
       fill="url(#SVGID_16_)"
       id="path464"
       style="fill:url(#SVGID_16_);stroke-width:0.550264" />
    <path
       d="m 192.40281,127.55688 c -5.88918,3.76611 -10.91461,8.72705 -14.71964,14.53017 -0.85598,1.30496 -2.83072,1.3017 -3.68171,-0.006 -3.78393,-5.81675 -8.7899,-10.79569 -14.66576,-14.58305 -1.30426,-0.84053 -1.30038,-2.75219 0.006,-3.58783 5.8892,-3.76609 10.91406,-8.72703 14.71965,-14.53016 0.85543,-1.30497 2.83072,-1.3017 3.68171,0.006 3.78393,5.81675 8.79045,10.79569 14.66577,14.58303 1.30427,0.84055 1.30038,2.75221 -0.006,3.58783 z"
       fill="url(#SVGID_17_)"
       id="path466"
       style="fill:url(#SVGID_17_);stroke-width:0.550264" />
    <path
       d="m 300.08746,119.95821 c -5.8892,3.76609 -10.91461,8.72703 -14.71965,14.53016 -0.85544,1.30496 -2.83072,1.3017 -3.68172,-0.006 -3.78391,-5.81674 -8.78989,-10.79567 -14.66576,-14.58303 -1.30426,-0.84054 -1.30038,-2.7522 0.006,-3.58784 5.88919,-3.76609 10.91406,-8.72703 14.71964,-14.53016 0.85545,-1.30497 2.83074,-1.3017 3.68173,0.006 3.78393,5.81675 8.79044,10.79568 14.66576,14.58302 1.30426,0.84 1.30037,2.75166 -0.006,3.58784 z"
       fill="url(#SVGID_18_)"
       id="path468"
       style="fill:url(#SVGID_18_);stroke-width:0.550264" />
    <path
       d="m 249.65773,35.557807 c -5.8892,3.766089 -10.91463,8.727036 -14.71965,14.530159 -0.85599,1.304968 -2.83073,1.301697 -3.68172,-0.0066 -3.78391,-5.816752 -8.7899,-10.795686 -14.66575,-14.583035 -1.30428,-0.840543 -1.30038,-2.752205 0.006,-3.587842 5.88919,-3.766089 10.91406,-8.727035 14.71963,-14.530158 0.85546,-1.304968 2.83073,-1.301697 3.68173,0.0066 3.78392,5.816751 8.79045,10.795685 14.66576,14.583033 1.30426,0.840544 1.30037,2.752205 -0.006,3.587842 z"
       fill="url(#SVGID_19_)"
       id="path470"
       style="fill:url(#SVGID_19_);stroke-width:0.550264" />
    <path
       d="m 244.20014,93.758032 c -4.2933,2.745657 -7.95612,6.361848 -10.7302,10.591808 -0.62379,0.9512 -2.0636,0.94849 -2.68351,-0.005 -2.75795,-4.24032 -6.40745,-7.869596 -10.69076,-10.630524 -0.95041,-0.612694 -0.9482,-2.005964 0.005,-2.615383 4.29329,-2.745667 7.95612,-6.361852 10.73019,-10.591818 0.62381,-0.951202 2.06361,-0.949019 2.68352,0.0049 2.7585,4.240328 6.408,7.869597 10.69074,10.630521 0.95098,0.612693 0.94822,2.005963 -0.005,2.615388 z"
       fill="url(#SVGID_20_)"
       id="path472"
       style="fill:url(#SVGID_20_);stroke-width:0.550264" />
    <path
       d="m 261.68551,61.058083 c -4.2933,2.745667 -7.95613,6.361852 -10.73018,10.591819 -0.6238,0.951201 -2.06361,0.948476 -2.68353,-0.0049 -2.75796,-4.240328 -6.40745,-7.869596 -10.69075,-10.630521 -0.95043,-0.612692 -0.9482,-2.005963 0.005,-2.615387 4.2933,-2.745663 7.95614,-6.361848 10.73019,-10.591817 0.62381,-0.951199 2.0636,-0.949017 2.68353,0.0049 2.75851,4.240325 6.408,7.869595 10.69075,10.630524 0.95043,0.612694 0.94765,2.005965 -0.005,2.615382 z"
       fill="url(#SVGID_21_)"
       id="path474"
       style="fill:url(#SVGID_21_);stroke-width:0.550264" />
    <text
       xml:space="preserve"
       style="font-size:260px;line-height:1.25;font-family:Roboto;-inkscape-font-specification:Roboto"
       x="342.85715"
       y="232.50977"
       id="text1301"><tspan
         sodipodi:role="line"
         id="tspan1299"
         x="342.85715"
         y="232.50977">NORAD</tspan></text>
  </g>
</svg>
